# xmcd
#
# Track frame offsets:
#	150
#	14797
#	39053
#	55780
#	90817
#	123379
#	163411
#	192665
#	229791
#	251380
#	273130
#
# Disc length: 3831 seconds
#
# Revision: 0
# Processed by: cddbd v1.5.2PL0 Copyright (c) Steve Scherf et al.
# Submitted via: audiograbber 1.83.01
#
DISCID=890ef50b
DTITLE=Grateful Dead - 73-06-30 Universal Amphitheatre, Universal City CA
DYEAR=1900
DGENRE=
TTITLE0=Promised Land
TTITLE1=They Love Each Other
TTITLE2=Mexicali Blues
TTITLE3=Tennessee Jed
TTITLE4=Looks Like Rain
TTITLE5=Bird Song
TTITLE6=Cumberland Blues
TTITLE7=Row Jimmy
TTITLE8=Jack Straw
TTITLE9=Deal
TTITLE10=BIODTL
EXTD=
EXTT0=
EXTT1=
EXTT2=
EXTT3=
EXTT4=
EXTT5=
EXTT6=
EXTT7=
EXTT8=
EXTT9=
EXTT10=
PLAYORDER=
